<?xml version="1.0" encoding="UTF-8" standalone="no"?><!DOCTYPE svg PUBLIC "-//W3C//DTD SVG 1.1//EN" "http://www.w3.org/Graphics/SVG/1.1/DTD/svg11.dtd"><svg width="100%" height="100%" viewBox="0 0 16 16" version="1.1" xmlns="http://www.w3.org/2000/svg" xmlns:xlink="http://www.w3.org/1999/xlink" xml:space="preserve" style="fill-rule:evenodd;clip-rule:evenodd;stroke-linejoin:round;stroke-miterlimit:1.41421;"><path d="M8,1c3.863,0 7,3.137 7,7c0,3.863 -3.137,7 -7,7c-3.863,0 -7,-3.137 -7,-7c0,-3.863 3.137,-7 7,-7Zm0.274,8.417c0.416,0 0.818,-0.054 1.206,-0.162c0.388,-0.108 0.734,-0.28 1.038,-0.516c0.304,-0.236 0.548,-0.536 0.732,-0.9c0.184,-0.364 0.276,-0.802 0.276,-1.314c0,-0.584 -0.106,-1.058 -0.318,-1.422c-0.212,-0.364 -0.486,-0.648 -0.822,-0.852c-0.336,-0.204 -0.714,-0.34 -1.134,-0.408c-0.42,-0.068 -0.838,-0.102 -1.254,-0.102c-0.4,0 -0.802,0.018 -1.206,0.054c-0.404,0.036 -0.774,0.086 -1.11,0.15l0,8.316l1.644,0l0,-2.892c0.04,0.008 0.106,0.016 0.198,0.024c0.092,0.008 0.186,0.014 0.282,0.018c0.096,0.004 0.188,0.006 0.276,0.006l0.192,0Zm-0.144,-4.26c-0.16,0 -0.312,0.006 -0.456,0.018c-0.144,0.012 -0.26,0.026 -0.348,0.042l0,2.724c0.032,0.008 0.08,0.016 0.144,0.024c0.064,0.008 0.132,0.014 0.204,0.018c0.072,0.004 0.142,0.006 0.21,0.006c0.068,0 0.118,0 0.15,0c0.216,0 0.43,-0.02 0.642,-0.06c0.212,-0.04 0.402,-0.114 0.57,-0.222c0.168,-0.108 0.302,-0.258 0.402,-0.45c0.1,-0.192 0.15,-0.444 0.15,-0.756c0,-0.264 -0.048,-0.482 -0.144,-0.654c-0.096,-0.172 -0.222,-0.31 -0.378,-0.414c-0.156,-0.104 -0.334,-0.176 -0.534,-0.216c-0.2,-0.04 -0.404,-0.06 -0.612,-0.06Z"/></svg>