<?xml version="1.0" standalone="no"?>
<!DOCTYPE svg PUBLIC "-//W3C//DTD SVG 20010904//EN"
 "http://www.w3.org/TR/2001/REC-SVG-20010904/DTD/svg10.dtd">
<svg version="1.0" xmlns="http://www.w3.org/2000/svg"
 width="16.000000pt" height="16.000000pt" viewBox="0 0 16.000000 16.000000"
 preserveAspectRatio="xMidYMid meet">
<metadata>
Created by potrace 1.11, written by Peter Selinger 2001-2013
</metadata>
<g transform="translate(0.000000,16.000000) scale(0.001563,-0.001563)"
fill="#000000" stroke="none">
<path d="M9735 8599 c-221 -24 -442 -47 -1725 -179 -586 -60 -1130 -117 -1210
-125 -80 -9 -884 -92 -1788 -185 -904 -94 -1649 -173 -1656 -177 -7 -5 -720
-557 -1585 -1227 l-1572 -1219 28 -27 c15 -15 393 -362 838 -771 446 -410
1372 -1261 2058 -1893 687 -631 1252 -1144 1257 -1140 4 5 1244 1555 2756
3444 1511 1889 2763 3454 2782 3478 41 50 60 48 -183 21z m-4325 -1054 c333
-4 654 -11 715 -16 276 -25 455 -115 530 -266 41 -82 47 -214 16 -329 -105
-382 -577 -935 -1049 -1227 -526 -326 -1069 -410 -1537 -238 -44 16 -225 86
-403 155 -178 69 -329 126 -335 126 -6 0 -232 -224 -503 -497 l-491 -498 -192
129 -192 129 58 58 c32 31 623 605 1313 1274 l1255 1216 105 -5 c58 -3 377 -8
710 -11z"/>
<path d="M4639 7073 c-90 -93 -351 -357 -578 -587 -291 -295 -409 -421 -400
-426 28 -15 667 -212 749 -231 127 -30 331 -36 461 -14 205 34 416 123 599
253 112 80 322 285 407 397 132 176 183 291 183 411 0 161 -136 266 -395 303
-67 9 -775 61 -840 61 -14 0 -79 -59 -186 -167z"/>
</g>
</svg>
