<?xml version="1.0" encoding="UTF-8" standalone="no"?>
<!DOCTYPE svg PUBLIC "-//W3C//DTD SVG 1.1//EN" "http://www.w3.org/Graphics/SVG/1.1/DTD/svg11.dtd">
<svg width="100%" height="100%" viewBox="0 0 12 12" version="1.1" xmlns="http://www.w3.org/2000/svg" xmlns:xlink="http://www.w3.org/1999/xlink" xml:space="preserve" xmlns:serif="http://www.serif.com/" style="fill-rule:evenodd;clip-rule:evenodd;stroke-linejoin:round;stroke-miterlimit:1.41421;">
    <path d="M4,9L8,9L8,11L4,11L4,9ZM2,1L4,1L4,11L2,11L2,1ZM8,7L10,7L10,9L8,9L8,7ZM4,5L8,5L8,7L4,7L4,5ZM8,3L10,3L10,5L8,5L8,3ZM4,1L8,1L8,3L4,3L4,1Z"/>
</svg>
