<?xml version="1.0" encoding="UTF-8" standalone="no"?>
<!DOCTYPE svg PUBLIC "-//W3C//DTD SVG 1.1//EN" "http://www.w3.org/Graphics/SVG/1.1/DTD/svg11.dtd">
<svg width="100%" height="100%" viewBox="0 0 12 12" version="1.1" xmlns="http://www.w3.org/2000/svg" xmlns:xlink="http://www.w3.org/1999/xlink" xml:space="preserve" xmlns:serif="http://www.serif.com/" style="fill-rule:evenodd;clip-rule:evenodd;stroke-linejoin:round;stroke-miterlimit:1.41421;">
    <g transform="matrix(1.64678,0,0,1.64678,-7.09053,3.87857)">
        <g transform="matrix(12,0,0,12,4.97259,4.38784)">
            <path d="M0.117,-0.164C0.119,-0.135 0.127,-0.112 0.139,-0.097C0.161,-0.068 0.199,-0.054 0.254,-0.054C0.286,-0.054 0.315,-0.061 0.34,-0.075C0.365,-0.09 0.377,-0.111 0.377,-0.141C0.377,-0.164 0.367,-0.181 0.347,-0.192C0.334,-0.2 0.309,-0.208 0.272,-0.217L0.202,-0.235C0.158,-0.246 0.125,-0.258 0.104,-0.272C0.066,-0.296 0.047,-0.329 0.047,-0.371C0.047,-0.42 0.065,-0.46 0.1,-0.491C0.136,-0.521 0.184,-0.537 0.244,-0.537C0.323,-0.537 0.38,-0.514 0.415,-0.467C0.436,-0.438 0.447,-0.406 0.446,-0.373L0.363,-0.373C0.362,-0.392 0.355,-0.41 0.342,-0.427C0.322,-0.45 0.287,-0.461 0.237,-0.461C0.204,-0.461 0.179,-0.455 0.162,-0.442C0.145,-0.43 0.136,-0.413 0.136,-0.392C0.136,-0.369 0.147,-0.351 0.17,-0.337C0.183,-0.329 0.202,-0.322 0.228,-0.316L0.286,-0.302C0.349,-0.286 0.391,-0.272 0.413,-0.257C0.447,-0.235 0.464,-0.2 0.464,-0.151C0.464,-0.105 0.446,-0.065 0.411,-0.031C0.376,0.003 0.322,0.02 0.25,0.02C0.172,0.02 0.117,0.002 0.084,-0.033C0.052,-0.068 0.035,-0.112 0.032,-0.164L0.117,-0.164Z" style="fill-rule:nonzero;"/>
        </g>
    </g>
</svg>
