<?xml version="1.0" encoding="UTF-8" standalone="no"?>
<!DOCTYPE svg PUBLIC "-//W3C//DTD SVG 1.1//EN" "http://www.w3.org/Graphics/SVG/1.1/DTD/svg11.dtd">
<svg width="100%" height="100%" viewBox="0 0 12 12" version="1.1" xmlns="http://www.w3.org/2000/svg" xmlns:xlink="http://www.w3.org/1999/xlink" xml:space="preserve" xmlns:serif="http://www.serif.com/" style="fill-rule:evenodd;clip-rule:evenodd;stroke-linejoin:round;stroke-miterlimit:1.41421;">
    <g transform="matrix(1.73346,0,0,1.73346,-6.72826,3.71105)">
        <g transform="matrix(12,0,0,12,4.29583,4.38784)">
            <path d="M0.349,-0.491L0.349,-0.513L0.437,-0.513L0.437,-0.343L0.349,-0.343L0.349,-0.374C0.32,-0.416 0.28,-0.437 0.229,-0.437C0.202,-0.437 0.181,-0.431 0.164,-0.419C0.147,-0.408 0.138,-0.393 0.138,-0.374C0.138,-0.357 0.145,-0.344 0.157,-0.335C0.17,-0.326 0.199,-0.317 0.244,-0.31L0.312,-0.297C0.413,-0.278 0.464,-0.229 0.464,-0.148C0.464,-0.101 0.446,-0.063 0.409,-0.034C0.372,-0.006 0.324,0.009 0.263,0.009C0.239,0.009 0.215,0.005 0.192,-0.002C0.169,-0.009 0.149,-0.017 0.134,-0.028L0.134,0L0.044,0L0.044,-0.176L0.134,-0.176L0.134,-0.158C0.139,-0.133 0.152,-0.114 0.175,-0.099C0.198,-0.084 0.224,-0.076 0.254,-0.076C0.287,-0.076 0.313,-0.082 0.332,-0.094C0.35,-0.105 0.36,-0.122 0.36,-0.145C0.36,-0.162 0.352,-0.174 0.337,-0.182C0.322,-0.191 0.292,-0.199 0.247,-0.208L0.195,-0.219C0.143,-0.23 0.105,-0.248 0.081,-0.273C0.057,-0.298 0.045,-0.331 0.045,-0.37C0.045,-0.402 0.054,-0.429 0.072,-0.452C0.089,-0.475 0.112,-0.492 0.14,-0.503C0.167,-0.514 0.196,-0.52 0.225,-0.52C0.274,-0.52 0.316,-0.51 0.349,-0.491Z" style="fill-rule:nonzero;"/>
        </g>
    </g>
</svg>
