<?xml version="1.0" encoding="UTF-8"?>
<svg clip-rule="evenodd" fill-rule="evenodd" stroke-linejoin="round" stroke-miterlimit="1.4142" version="1.1" viewBox="0 0 12 12" xml:space="preserve" xmlns="http://www.w3.org/2000/svg" xmlns:cc="http://creativecommons.org/ns#" xmlns:dc="http://purl.org/dc/elements/1.1/" xmlns:rdf="http://www.w3.org/1999/02/22-rdf-syntax-ns#"><metadata><rdf:RDF><cc:Work rdf:about=""><dc:format>image/svg+xml</dc:format><dc:type rdf:resource="http://purl.org/dc/dcmitype/StillImage"/><dc:title/></cc:Work></rdf:RDF></metadata>
    <g transform="scale(1.0887 .91856)" aria-label="0"><path d="m9.4576 6.5049q0 3.0927-0.97176 4.5426-0.96404 1.4422-3.0001 1.4422-2.0669 0-3.0232-1.4653-0.94862-1.4653-0.94862-4.504 0-3.0618 0.96404-4.5194 0.96404-1.4653 3.0078-1.4653 2.0669 0 3.0155 1.4885 0.95633 1.4808 0.95633 4.4809zm-2.0283 3.5014q0.26993-0.6247 0.36248-1.4653 0.10026-0.84836 0.10026-2.0361 0-1.1723-0.10026-2.0361-0.092548-0.86378-0.37019-1.4653-0.26993-0.59385-0.74039-0.89463-0.46274-0.30078-1.1954-0.30078-0.72496 0-1.2031 0.30078-0.47045 0.30078-0.7481 0.91006-0.26222 0.57071-0.36248 1.4885-0.092548 0.91777-0.092548 2.0129 0 1.2031 0.084836 2.0129t0.36248 1.4499q0.25451 0.60156 0.71725 0.91777 0.47045 0.31621 1.2417 0.31621 0.72496 0 1.2031-0.30078t0.74039-0.91006z" stroke-width=".39487"/></g>
<ellipse cx="6.2063" cy="6.0628" rx="3.9731" ry="5.5157" clip-rule="evenodd" fill="none" stroke-linejoin="round" stroke-miterlimit="1.4142"/></svg>
